HIERARCHY
ROOT joint_Root
{
	OFFSET 0.0 0.0 0.0
	CHANNELS 6 Xposition Yposition Zposition Zrotation Xrotation Yrotation 
	JOINT Hips
	{
		OFFSET -0.726466 93.3139 -2.00062
		CHANNELS 6 Xposition Yposition Zposition Zrotation Xrotation Yrotation 
		JOINT Spine
		{
			OFFSET 15.7357 0.0 0.0
			CHANNELS 6 Xposition Yposition Zposition Zrotation Xrotation Yrotation 
			JOINT Chest
			{
				OFFSET 8.98455 -0.406207 0.0
				CHANNELS 6 Xposition Yposition Zposition Zrotation Xrotation Yrotation 
				JOINT Neck
				{
					OFFSET 16.3773 0.0 0.0
					CHANNELS 6 Xposition Yposition Zposition Zrotation Xrotation Yrotation 
					JOINT Head
					{
						OFFSET 6.45672 0.0 0.0
						CHANNELS 6 Xposition Yposition Zposition Zrotation Xrotation Yrotation 
						End Site
						{
							OFFSET 0.0 0.0 0.0
						}
					}
				}
				JOINT Shoulder_L
				{
					OFFSET 12.9942 -0.242716 4.98039
					CHANNELS 6 Xposition Yposition Zposition Zrotation Xrotation Yrotation 
					JOINT UpperArm_L
					{
						OFFSET 5.34809 0.0 0.0
						CHANNELS 6 Xposition Yposition Zposition Zrotation Xrotation Yrotation 
						JOINT LowerArm_L
						{
							OFFSET 24.3286 1.87007e-05 0.0
							CHANNELS 6 Xposition Yposition Zposition Zrotation Xrotation Yrotation 
							JOINT Hand_L
							{
								OFFSET 22.2916 0.0 0.0
								CHANNELS 6 Xposition Yposition Zposition Zrotation Xrotation Yrotation 
								End Site
								{
									OFFSET 0.0 0.0 0.0
								}
							}
						}
					}
				}
				JOINT Shoulder_R
				{
					OFFSET 12.9945 -0.242716 -4.98039
					CHANNELS 6 Xposition Yposition Zposition Zrotation Xrotation Yrotation 
					JOINT UpperArm_R
					{
						OFFSET -5.34813 0.0 0.0
						CHANNELS 6 Xposition Yposition Zposition Zrotation Xrotation Yrotation 
						JOINT LowerArm_R
						{
							OFFSET -24.3289 0.000322201 0.0
							CHANNELS 6 Xposition Yposition Zposition Zrotation Xrotation Yrotation 
							JOINT Hand_R
							{
								OFFSET -22.2915 -0.000108084 0.0
								CHANNELS 6 Xposition Yposition Zposition Zrotation Xrotation Yrotation 
								End Site
								{
									OFFSET 0.0 0.0 0.0
								}
							}
						}
					}
				}
			}
		}
		JOINT UpperLeg_L
		{
			OFFSET -2.19248 -6.46944 0.0
			CHANNELS 6 Xposition Yposition Zposition Zrotation Xrotation Yrotation 
			JOINT LowerLeg_L
			{
				OFFSET 39.0811 0.0 -1.23785e-05
				CHANNELS 6 Xposition Yposition Zposition Zrotation Xrotation Yrotation 
				JOINT Foot_L
				{
					OFFSET 40.9854 0.0 -1.26872e-05
					CHANNELS 6 Xposition Yposition Zposition Zrotation Xrotation Yrotation 
					JOINT Toes_L
					{
						OFFSET 11.7543 0.0 0.0
						CHANNELS 6 Xposition Yposition Zposition Zrotation Xrotation Yrotation 
						End Site
						{
							OFFSET 0.0 0.0 0.0
						}
					}
				}
			}
		}
		JOINT UpperLeg_R
		{
			OFFSET -2.19251 6.46944 0.0
			CHANNELS 6 Xposition Yposition Zposition Zrotation Xrotation Yrotation 
			JOINT LowerLeg_R
			{
				OFFSET -39.0811 -0.00228153 -0.0401928
				CHANNELS 6 Xposition Yposition Zposition Zrotation Xrotation Yrotation 
				JOINT Foot_R
				{
					OFFSET -40.9854 0.0 0.0
					CHANNELS 6 Xposition Yposition Zposition Zrotation Xrotation Yrotation 
					JOINT Toes_R
					{
						OFFSET -11.7543 0.0 0.0
						CHANNELS 6 Xposition Yposition Zposition Zrotation Xrotation Yrotation 
						End Site
						{
							OFFSET 0.0 0.0 0.0
						}
					}
				}
			}
		}
	}
}
MOTION
Frames:	9
Frame Time:	0.0333333
0.000000 0.000000 0.000000 0.000000 0.000000 -0.000000 -1.236790 92.412700 -1.389790 87.820000 -0.493972 3.676430 15.735700 0.000005 -0.000001 74.381700 87.251700 -73.704100 8.984550 -0.406207 -0.000000 -2.463270 -1.539820 1.322130 16.377300 -0.000001 -0.000001 -0.379168 -1.623460 0.812905 6.456720 -0.000001 -0.000000 -2.625910 -1.474660 -0.790023 12.994200 -0.242716 4.980390 -84.089800 -12.472100 -64.389800 5.348090 -0.000007 -0.000001 -60.700100 -56.756000 -90.892300 24.328600 0.000019 0.000005 2.115070 1.191600 -60.616200 22.291600 -0.000001 0.000005 20.353700 5.620960 -12.686200 12.994500 -0.242716 -4.980390 93.918300 -8.644530 -65.501000 -5.348130 -0.000001 -0.000004 -54.627600 -59.013000 -103.359000 -24.328900 0.000322 -0.000009 1.091070 1.180000 -42.793000 -22.291500 -0.000108 -0.000004 21.669400 5.568600 -9.616110 -2.192480 -6.469440 -0.000000 -170.010000 -19.555500 -2.935320 39.081100 -0.000007 -0.000012 -0.116849 0.303692 21.044800 40.985400 -0.000006 -0.000013 -5.247860 0.278377 -62.363900 11.754300 -0.000000 0.000003 -0.000149 -0.001444 -16.632500 -2.192510 6.469440 -0.000001 175.030000 24.470900 179.557000 -39.081100 -0.002282 -0.040193 0.022104 -0.054691 18.952300 -40.985400 0.000008 0.000006 -0.451947 3.809230 -62.441500 -11.754300 -0.000006 -0.000006 -0.003649 -0.047738 -18.514800
0.000000 0.000000 0.000000 0.000000 0.000000 -0.000000 -1.220640 92.416900 -1.385030 87.812400 -0.578480 3.655600 15.735700 0.000005 -0.000001 74.616500 87.233600 -73.935600 8.984550 -0.406207 -0.000000 -2.422440 -1.527770 1.329520 16.377300 -0.000001 -0.000001 -0.315185 -1.630930 0.829974 6.456720 -0.000001 -0.000000 -2.515230 -1.497360 -0.788844 12.994200 -0.242716 4.980390 -84.102400 -12.446700 -64.392900 5.348090 -0.000007 -0.000001 -60.211300 -56.969500 -90.308400 24.328600 0.000019 0.000005 2.252940 1.248340 -61.023000 22.291600 -0.000001 0.000005 20.048100 5.618170 -12.494300 12.994500 -0.242716 -4.980390 93.903600 -8.587790 -65.440900 -5.348130 -0.000001 -0.000004 -53.812400 -59.123000 -102.467000 -24.328900 0.000322 -0.000009 0.865409 0.929246 -43.004800 -22.291500 -0.000108 -0.000004 21.673500 5.571400 -9.760070 -2.192480 -6.469440 -0.000000 -170.010000 -19.605600 -2.913880 39.081100 -0.000007 -0.000012 -0.117144 0.304882 21.018300 40.985400 -0.000006 -0.000013 -5.251140 0.233716 -62.371900 11.754300 -0.000000 0.000003 -0.000143 -0.001398 -16.630800 -2.192510 6.469440 -0.000001 175.045000 24.466100 179.540000 -39.081100 -0.002282 -0.040193 0.022707 -0.056530 18.926200 -40.985400 0.000008 0.000006 -0.378944 3.831250 -62.429200 -11.754300 -0.000006 -0.000006 -0.003780 -0.049132 -18.571500
0.000000 0.000000 0.000000 0.000000 0.000000 -0.000000 -1.208060 92.412300 -1.367160 87.816200 -0.669509 3.631020 15.735700 0.000005 -0.000001 74.922000 87.215800 -74.241500 8.984550 -0.406207 -0.000000 -2.380380 -1.508310 1.329750 16.377300 -0.000001 -0.000001 -0.257892 -1.583700 0.826734 6.456720 -0.000001 -0.000000 -2.498000 -1.487550 -0.800123 12.994200 -0.242716 4.980390 -84.102500 -12.427200 -64.358800 5.348090 -0.000007 -0.000001 -59.761800 -57.017100 -89.500200 24.328600 0.000019 0.000005 2.278170 1.226830 -61.712800 22.291600 -0.000001 0.000005 19.893900 5.616290 -12.368400 12.994500 -0.242716 -4.980390 93.875000 -8.517120 -65.423200 -5.348130 -0.000001 -0.000004 -52.565200 -59.276400 -100.935000 -24.328900 0.000322 -0.000009 0.764880 0.803195 -43.643800 -22.291500 -0.000108 -0.000004 21.461200 5.568030 -9.587500 -2.192480 -6.469440 -0.000000 -170.020000 -19.608000 -2.918010 39.081100 -0.000007 -0.000012 -0.117124 0.304464 21.041300 40.985400 -0.000006 -0.000013 -5.266460 0.166674 -62.411600 11.754300 -0.000000 0.000003 -0.000142 -0.001384 -16.630200 -2.192510 6.469440 -0.000001 175.039000 24.424900 179.515000 -39.081100 -0.002282 -0.040193 0.022631 -0.056310 18.925700 -40.985400 0.000008 0.000006 -0.434889 3.873560 -62.439100 -11.754300 -0.000006 -0.000006 -0.003825 -0.049607 -18.590900
0.000000 0.000000 0.000000 0.000000 0.000000 -0.000000 -1.198030 92.416600 -1.342820 87.829500 -0.766799 3.598560 15.735700 0.000005 -0.000001 75.714300 87.195300 -75.041100 8.984550 -0.406207 -0.000000 -2.321640 -1.442970 1.317170 16.377300 -0.000001 -0.000001 -0.223421 -1.554540 0.804539 6.456720 -0.000001 -0.000000 -2.530330 -1.497440 -0.813017 12.994200 -0.242716 4.980390 -84.110500 -12.418100 -64.373300 5.348090 -0.000007 -0.000001 -59.259200 -56.955100 -88.216600 24.328600 0.000019 0.000005 1.821270 0.927344 -63.028400 22.291600 -0.000001 0.000005 19.521100 5.614020 -12.219200 12.994500 -0.242716 -4.980390 93.806600 -8.364470 -65.421000 -5.348130 -0.000001 -0.000004 -50.809200 -59.494400 -98.626500 -24.328900 0.000322 -0.000009 0.794715 0.799376 -44.878000 -22.291500 -0.000108 -0.000004 21.002400 5.557010 -9.040590 -2.192480 -6.469440 -0.000000 -170.049000 -19.658600 -2.898840 39.081100 -0.000007 -0.000012 -0.117715 0.306683 20.998500 40.985400 -0.000006 -0.000013 -5.275330 0.076268 -62.414100 11.754300 -0.000000 0.000003 -0.000154 -0.001483 -16.633900 -2.192510 6.469440 -0.000001 175.031000 24.353700 179.506000 -39.081100 -0.002282 -0.040193 0.021660 -0.053622 18.878700 -40.985400 0.000008 0.000006 -0.456139 3.938160 -62.422000 -11.754300 -0.000006 -0.000006 -0.003583 -0.047029 -18.485900
0.000000 0.000000 0.000000 0.000000 0.000000 -0.000000 -1.208270 92.417300 -1.337780 87.800400 -0.765948 3.546760 15.735700 0.000005 -0.000001 75.839900 87.157500 -75.169000 8.984550 -0.406207 -0.000000 -2.245160 -1.448940 1.313240 16.377300 -0.000001 -0.000001 -0.267662 -1.508190 0.820544 6.456720 -0.000001 -0.000000 -2.569890 -1.428050 -0.764688 12.994200 -0.242716 4.980390 -84.140300 -12.395200 -64.446900 5.348090 -0.000007 -0.000001 -58.301500 -56.821100 -85.961600 24.328600 0.000019 0.000005 0.739826 0.341017 -65.295700 22.291600 -0.000001 0.000005 19.009500 5.609380 -11.913300 12.994500 -0.242716 -4.980390 93.694700 -8.103330 -65.387300 -5.348130 -0.000001 -0.000004 -48.720000 -59.515500 -95.495300 -24.328900 0.000322 -0.000009 0.473752 0.440501 -47.172500 -22.291500 -0.000108 -0.000004 20.160400 5.542080 -8.335330 -2.192480 -6.469440 -0.000000 -170.047000 -19.546800 -2.957030 39.081100 -0.000007 -0.000012 -0.117932 0.307082 21.008900 40.985400 -0.000006 -0.000013 -5.299040 -0.013333 -62.434500 11.754300 -0.000000 0.000003 -0.000153 -0.001477 -16.633700 -2.192510 6.469440 -0.000001 175.087000 24.385300 179.446000 -39.081100 -0.002282 -0.040193 0.021815 -0.054062 18.883100 -40.985400 0.000008 0.000006 -0.446993 3.942200 -62.400400 -11.754300 -0.000006 -0.000006 -0.003609 -0.047309 -18.497300
0.000000 0.000000 0.000000 0.000000 0.000000 -0.000000 -1.217330 92.411400 -1.327150 87.796500 -0.754039 3.503390 15.735700 0.000005 -0.000001 76.294700 87.108100 -75.635400 8.984550 -0.406207 -0.000000 -2.138560 -1.426940 1.291790 16.377300 -0.000001 -0.000001 -0.283418 -1.507310 0.876444 6.456720 -0.000001 -0.000000 -2.743090 -1.377830 -0.786969 12.994200 -0.242716 4.980390 -84.199300 -12.392200 -64.667900 5.348090 -0.000007 -0.000001 -56.851700 -56.532900 -82.482000 24.328600 0.000019 0.000005 -1.120830 -0.435319 -68.717200 22.291600 -0.000001 0.000005 17.932300 5.603410 -11.546100 12.994500 -0.242716 -4.980390 93.598400 -7.845700 -65.265100 -5.348130 -0.000001 -0.000004 -46.384500 -59.178000 -91.302000 -24.328900 0.000322 -0.000009 0.160994 0.131847 -50.965000 -22.291500 -0.000108 -0.000004 19.199500 5.518340 -7.281820 -2.192480 -6.469440 -0.000000 -170.044000 -19.502800 -3.006820 39.081100 -0.000007 -0.000012 -0.119708 0.311290 21.034500 40.985400 -0.000006 -0.000013 -5.322420 -0.034133 -62.456300 11.754300 -0.000000 0.000003 -0.000152 -0.001469 -16.633400 -2.192510 6.469440 -0.000001 175.113000 24.409100 179.402000 -39.081100 -0.002282 -0.040193 0.022581 -0.056224 18.907000 -40.985400 0.000008 0.000006 -0.381805 3.951740 -62.458500 -11.754300 -0.000006 -0.000006 -0.003786 -0.049197 -18.574200
0.000000 0.000000 0.000000 0.000000 0.000000 -0.000000 -1.234490 92.405800 -1.314300 87.809600 -0.708860 3.486590 15.735700 0.000005 -0.000001 76.566700 87.017900 -75.932100 8.984550 -0.406207 -0.000000 -1.956890 -1.439040 1.244490 16.377300 -0.000001 -0.000001 -0.325491 -1.491990 0.932316 6.456720 -0.000001 -0.000000 -2.966680 -1.353710 -0.703048 12.994200 -0.242716 4.980390 -84.310600 -12.244800 -64.838800 5.348090 -0.000007 -0.000001 -54.214100 -55.899400 -77.491800 24.328600 0.000019 0.000005 -3.236890 -0.988257 -73.020700 22.291600 -0.000001 0.000005 17.012100 5.600000 -11.341500 12.994500 -0.242716 -4.980390 93.433200 -7.436360 -65.130300 -5.348130 -0.000001 -0.000004 -43.639900 -58.444700 -86.107700 -24.328900 0.000322 -0.000009 -0.125358 -0.083496 -56.052100 -22.291500 -0.000108 -0.000004 17.896000 5.489680 -6.119370 -2.192480 -6.469440 -0.000000 -170.069000 -19.389000 -3.045630 39.081100 -0.000007 -0.000012 -0.119686 0.310856 21.057800 40.985400 -0.000006 -0.000013 -5.343140 -0.098650 -62.473600 11.754300 -0.000000 0.000003 -0.000131 -0.001299 -16.627100 -2.192510 6.469440 -0.000001 175.111000 24.424500 179.381000 -39.081100 -0.002282 -0.040193 0.022840 -0.056839 18.950400 -40.985400 0.000008 0.000006 -0.382878 3.927920 -62.505700 -11.754300 -0.000006 -0.000006 -0.003655 -0.047797 -18.517200
0.000000 0.000000 0.000000 0.000000 0.000000 -0.000000 -1.245200 92.401700 -1.293790 87.808900 -0.702264 3.504300 15.735700 0.000005 -0.000001 77.431400 86.933000 -76.824300 8.984550 -0.406207 -0.000000 -1.771620 -1.384990 1.192570 16.377300 -0.000001 -0.000001 -0.254169 -1.496730 0.984721 6.456720 -0.000001 -0.000000 -3.234370 -1.436270 -0.559881 12.994200 -0.242716 4.980390 -84.437300 -12.057700 -65.003500 5.348090 -0.000007 -0.000001 -51.298800 -54.414900 -71.596100 24.328600 0.000019 0.000005 -4.702270 -0.987468 -78.157100 22.291600 -0.000001 0.000005 16.160100 5.596650 -11.144000 12.994500 -0.242716 -4.980390 93.193600 -6.842400 -64.904200 -5.348130 -0.000001 -0.000004 -40.198100 -56.989100 -79.841000 -24.328900 0.000322 -0.000009 -0.536595 -0.284221 -61.996100 -22.291500 -0.000108 -0.000004 16.986100 5.468260 -5.300900 -2.192480 -6.469440 -0.000000 -170.091000 -19.109200 -3.042570 39.081100 -0.000007 -0.000012 -0.121195 0.314461 21.077100 40.985400 -0.000006 -0.000013 -5.402320 -0.367693 -62.513300 11.754300 -0.000000 0.000003 -0.000149 -0.001445 -16.632500 -2.192510 6.469440 -0.000001 175.105000 24.430800 179.389000 -39.081100 -0.002282 -0.040193 0.022548 -0.055837 18.998900 -40.985400 0.000008 0.000006 -0.409698 3.929580 -62.520600 -11.754300 -0.000006 -0.000006 -0.003866 -0.050040 -18.608500
0.000000 0.000000 0.000000 0.000000 0.000000 -0.000000 -1.258940 92.374200 -1.252620 87.815900 -0.640443 3.588290 15.735700 0.000005 -0.000001 77.876000 86.800500 -77.305300 8.984550 -0.406207 -0.000000 -1.502670 -1.389830 1.122900 16.377300 -0.000001 -0.000001 -0.218502 -1.611030 1.112280 6.456720 -0.000001 -0.000000 -3.322180 -1.419450 -0.459928 12.994200 -0.242716 4.980390 -84.591000 -11.931200 -65.392100 5.348090 -0.000007 -0.000001 -47.368600 -52.476000 -64.149600 24.328600 0.000019 0.000005 -6.373100 -0.688855 -83.842700 22.291600 -0.000001 0.000005 15.131200 5.590890 -10.810800 12.994500 -0.242716 -4.980390 92.943800 -6.304480 -64.906600 -5.348130 -0.000001 -0.000004 -36.334700 -54.931100 -72.423200 -24.328900 0.000322 -0.000009 -1.474970 -0.570019 -68.832200 -22.291500 -0.000108 -0.000004 15.941700 5.450530 -4.655450 -2.192480 -6.469440 -0.000000 -170.092000 -18.685200 -3.024640 39.081100 -0.000007 -0.000012 -0.126033 0.324326 21.236200 40.985400 -0.000006 -0.000013 -5.486290 -0.645557 -62.652400 11.754300 -0.000000 0.000003 -0.000140 -0.001369 -16.629700 -2.192510 6.469440 -0.000001 175.030000 24.516000 179.509000 -39.081100 -0.002282 -0.040193 0.022369 -0.055084 19.073000 -40.985400 0.000008 0.000006 -0.410204 3.989920 -62.698700 -11.754300 -0.000006 -0.000006 -0.003833 -0.049691 -18.594300
